<svg id="Group_27" data-name="Group 27" xmlns="http://www.w3.org/2000/svg" xmlns:xlink="http://www.w3.org/1999/xlink" width="25.841" height="25.841" viewBox="0 0 25.841 25.841">
  <defs>
    <clipPath id="clip-path">
      <rect id="Rectangle_20" data-name="Rectangle 20" width="25.841" height="25.841" fill="#fff"/>
    </clipPath>
  </defs>
  <g id="Group_26" data-name="Group 26" clip-path="url(#clip-path)">
    <path id="Path_41" data-name="Path 41" d="M12.92,2.328c3.45,0,3.859.013,5.221.075a7.148,7.148,0,0,1,2.4.445,4,4,0,0,1,1.486.967A4,4,0,0,1,22.992,5.3a7.149,7.149,0,0,1,.445,2.4c.062,1.362.075,1.771.075,5.221s-.013,3.859-.075,5.221a7.149,7.149,0,0,1-.445,2.4,4.279,4.279,0,0,1-2.452,2.452,7.148,7.148,0,0,1-2.4.445c-1.362.062-1.771.075-5.221.075S9.061,23.5,7.7,23.438a7.149,7.149,0,0,1-2.4-.445,4,4,0,0,1-1.486-.967,4,4,0,0,1-.966-1.486,7.15,7.15,0,0,1-.445-2.4c-.062-1.362-.075-1.771-.075-5.221S2.34,9.062,2.4,7.7a7.15,7.15,0,0,1,.445-2.4,4,4,0,0,1,.966-1.486A4,4,0,0,1,5.3,2.848,7.149,7.149,0,0,1,7.7,2.4c1.363-.062,1.771-.075,5.221-.075M12.92,0C9.411,0,8.971.015,7.592.078a9.485,9.485,0,0,0-3.136.6,6.334,6.334,0,0,0-2.288,1.49A6.333,6.333,0,0,0,.677,4.457a9.484,9.484,0,0,0-.6,3.136C.014,8.972,0,9.412,0,12.921s.015,3.949.078,5.327a9.484,9.484,0,0,0,.6,3.136,6.333,6.333,0,0,0,1.49,2.289,6.334,6.334,0,0,0,2.288,1.49,9.485,9.485,0,0,0,3.136.6c1.378.063,1.818.078,5.327.078s3.949-.015,5.327-.078a9.484,9.484,0,0,0,3.136-.6,6.607,6.607,0,0,0,3.779-3.779,9.483,9.483,0,0,0,.6-3.136c.063-1.378.078-1.818.078-5.327s-.015-3.949-.078-5.327a9.483,9.483,0,0,0-.6-3.136,6.335,6.335,0,0,0-1.49-2.289A6.334,6.334,0,0,0,21.383.678a9.484,9.484,0,0,0-3.136-.6C16.869.015,16.429,0,12.92,0" transform="translate(0.001 0)" fill="#fff"/>
    <path id="Path_42" data-name="Path 42" d="M129.19,122.556a6.635,6.635,0,1,0,6.635,6.635,6.635,6.635,0,0,0-6.635-6.635m0,10.942a4.307,4.307,0,1,1,4.307-4.307,4.307,4.307,0,0,1-4.307,4.307" transform="translate(-116.269 -116.27)" fill="#fff"/>
    <path id="Path_43" data-name="Path 43" d="M359.267,88.765a1.55,1.55,0,1,1-1.55-1.55,1.55,1.55,0,0,1,1.55,1.55" transform="translate(-337.899 -82.742)" fill="#fff"/>
  </g>
</svg>
