<svg id="NAPISY" xmlns="http://www.w3.org/2000/svg" xmlns:xlink="http://www.w3.org/1999/xlink" width="260" height="69.688" viewBox="0 0 260 69.688">
  <defs>
    <clipPath id="clip-path">
      <rect id="Rectangle_11" data-name="Rectangle 11" width="259.994" height="69.688" fill="none"/>
    </clipPath>
  </defs>
  <path id="Path_19" data-name="Path 19" d="M149.789,81.025c-3.95,0-4.764-3.652-4.764-6.758,0-3.279.814-6.932,4.764-6.932s4.764,3.652,4.764,6.932c0,3.106-.814,6.758-4.764,6.758Zm0-17.745c-6.944,0-10.869,4-10.869,10.907s3.925,10.9,10.869,10.9,10.869-4,10.869-10.9S156.733,63.28,149.789,63.28Z" transform="translate(-52.636 -23.977)" fill="#fff" fill-rule="evenodd"/>
  <path id="Path_20" data-name="Path 20" d="M182.928,82.16c-2.006,0-2.5-2.7-2.5-4.323,0-1.944.2-4.727,2.7-4.727,2.354,0,2.615,2.671,2.615,4.466s-.41,4.584-2.82,4.584h0Zm2.006-12.236a5.688,5.688,0,0,0-4.447,1.975h-.056V63.98H174.91V84.917h5.379l.143-2.143h.118c.379,1.478,2.385,2.578,4.068,2.578,4.826,0,6.8-3.509,6.8-7.944,0-4.118-2.006-7.484-6.478-7.484h0Z" transform="translate(-66.273 -24.242)" fill="#fff" fill-rule="evenodd"/>
  <path id="Path_21" data-name="Path 21" d="M236.391,74.25l-2.559,10.267h-.056L231.249,74.25h-6.105l-2.559,10.323h-.056L220.174,74.25h-9.466l-3.137,10.118h-.056L204.64,74.25h-5.9l6.1,14.993-2.062,5.13h5.087l7.254-18.41,3.925,12.844h5.981l2.851-10.149h.056l2.646,10.149h6.1l4.6-14.559Z" transform="translate(-75.302 -28.133)" fill="#fff" fill-rule="evenodd"/>
  <path id="Path_22" data-name="Path 22" d="M271.575,85.79a1.909,1.909,0,0,1-1.888-1.913,2.1,2.1,0,0,1,1.453-1.944,7.351,7.351,0,0,1,3.019-.317c0,1.944-.2,4.174-2.584,4.174h0Zm7.758-.23V78.082c.056-3.279-3.515-4.522-6.478-4.522a12.418,12.418,0,0,0-5.025.87,3.938,3.938,0,0,0-2.528,3.913h5.2a1.991,1.991,0,0,1,1.745-2.236c2.2-.087,1.919,1.77,1.919,3.043H272.42c-4.764,0-8.018,1.453-8.081,4.987-.056,2.988,1.745,4.845,5.2,4.845a5.072,5.072,0,0,0,4.652-2.4h.056a8.115,8.115,0,0,0,.118,1.969h5.286c-.2-1.739-.317-2.379-.317-2.988h0Z" transform="translate(-100.157 -27.872)" fill="#fff" fill-rule="evenodd"/>
  <path id="Path_23" data-name="Path 23" d="M288.75,71.628v3.478h2.845v6.522c-.292,4.466,1.975,4.987,5.727,4.987a15.2,15.2,0,0,0,2.963-.292V83.044a16.66,16.66,0,0,1-2.124.087c-1.28,0-1.043-1.882-1.043-2.261V75.1h3.2V71.622h-3.2V67.33l-5.522,2.087v2.2H288.75Z" transform="translate(-109.406 -25.511)" fill="#fff" fill-rule="evenodd"/>
  <path id="Path_24" data-name="Path 24" d="M315.055,76.311a2.1,2.1,0,0,1,1.919.925,3.783,3.783,0,0,1,.671,2.174h-5.112c.143-1.652.609-3.019,2.528-3.106h0Zm-.118,9.571c-2.062,0-2.559-1.627-2.528-3.509h10.459c0-5.422-1.888-8.813-7.813-8.813-4.385,0-7.845,2.609-7.845,7.223,0,5.714,2.323,8.2,8.168,8.2A8.6,8.6,0,0,0,320,87.858a5.271,5.271,0,0,0,2.758-4.062h-5.112a2.4,2.4,0,0,1-2.7,2.087h0Z" transform="translate(-116.401 -27.872)" fill="#fff" fill-rule="evenodd"/>
  <path id="Path_25" data-name="Path 25" d="M339.335,63.98H333.82V84.917h5.515V63.98Z" transform="translate(-126.483 -24.242)" fill="#fff" fill-rule="evenodd"/>
  <path id="Path_26" data-name="Path 26" d="M357.78,78.482c-.23-4.031-3.428-4.932-6.888-4.932-2.907,0-6.739.988-6.739,4.584,0,5.279,8.633,3.739,8.633,6.323,0,.925-.783,1.335-1.857,1.335a1.784,1.784,0,0,1-1.31-.665,1.578,1.578,0,0,1-.379-1.3h-5.23c-.031,4.435,3.46,5.161,7.031,5.161,3.342,0,6.975-.988,6.975-4.845a3.753,3.753,0,0,0-2.932-4c-3.46-1.075-5.7-1.012-5.7-2.087a1.194,1.194,0,0,1,1.311-1.3,1.924,1.924,0,0,1,1.509.522,1.8,1.8,0,0,1,.348,1.217h5.23Z" transform="translate(-130.344 -27.868)" fill="#fff" fill-rule="evenodd"/>
  <path id="Path_27" data-name="Path 27" d="M373.222,63.98H367.7V84.917h5.522V63.98Z" transform="translate(-139.32 -24.242)" fill="#fff" fill-rule="evenodd"/>
  <path id="Path_28" data-name="Path 28" d="M381.826,88.809h6.534L382.7,80.368l4.938-6.118h-6.012l-5.031,6.435,5.236,8.124Z" transform="translate(-142.689 -28.133)" fill="#fff" fill-rule="evenodd"/>
  <path id="Path_29" data-name="Path 29" d="M401.189,85.79a1.909,1.909,0,0,1-1.888-1.913,2.1,2.1,0,0,1,1.453-1.944,7.369,7.369,0,0,1,3.025-.317c0,1.944-.2,4.174-2.584,4.174h0Zm7.758-.23V78.082c.056-3.279-3.515-4.522-6.478-4.522a12.418,12.418,0,0,0-5.025.87,3.938,3.938,0,0,0-2.528,3.913h5.2a2,2,0,0,1,1.745-2.236c2.211-.087,1.919,1.77,1.919,3.043h-1.745c-4.764,0-8.018,1.453-8.074,4.987-.056,2.988,1.745,4.845,5.2,4.845a5.072,5.072,0,0,0,4.652-2.4h.056a8.115,8.115,0,0,0,.118,1.969h5.286c-.2-1.739-.317-2.379-.317-2.988h0Z" transform="translate(-149.269 -27.872)" fill="#fff" fill-rule="evenodd"/>
  <path id="Path_30" data-name="Path 30" d="M146.889,27.45v9.1l6.584-9.1h7.05l-7.279,9.1,7.975,11.813h-7.509l-6.82-11.149V48.363H140.97V27.45Z" transform="translate(-53.413 -10.401)" fill="#fff"/>
  <path id="Path_31" data-name="Path 31" d="M181.209,44.409v-.391a6.784,6.784,0,0,0-.186-1.342,8.488,8.488,0,0,0-.416-1.255,2.062,2.062,0,0,0-.807-.882,2.844,2.844,0,0,0-2.5-.031,2.3,2.3,0,0,0-.851.826,4.3,4.3,0,0,0-.522,1.3,7.32,7.32,0,0,0-.174,1.677,9.519,9.519,0,0,0,.2,2.106,5,5,0,0,0,.578,1.5,2.885,2.885,0,0,0,.882.894,2.037,2.037,0,0,0,1.081.286,2.332,2.332,0,0,0,1.1-.248,1.954,1.954,0,0,0,.752-.708,6.007,6.007,0,0,0,.478-1.012,5.694,5.694,0,0,0,.273-1.1c.019-.137.031-.267.043-.391s.025-.255.043-.391v-.174a.867.867,0,0,1,.031-.2V44.4h0Zm-10.59-2.627a9.608,9.608,0,0,1,1.342-2.441,5.177,5.177,0,0,1,2.5-1.733,13.86,13.86,0,0,1,7.453-.13,8.993,8.993,0,0,1,2.758,1.317,5.667,5.667,0,0,1,1.832,2.267,7.793,7.793,0,0,1,.621,3.248,9.775,9.775,0,0,1-.491,3.267,5.864,5.864,0,0,1-1.447,2.311,11.1,11.1,0,0,1-2.037,1.484,6.9,6.9,0,0,1-2.211.8c-.211.037-.422.075-.634.118s-.422.068-.634.087a4.642,4.642,0,0,1-.59.075c-.2.012-.4.012-.59.012a10.171,10.171,0,0,1-3.391-.534,7.839,7.839,0,0,1-2.7-1.6,7.24,7.24,0,0,1-1.745-2.54,8.414,8.414,0,0,1-.59-3.236v-.056a9.349,9.349,0,0,1,.565-2.7h0Z" transform="translate(-64.435 -14.031)" fill="#fff"/>
  <path id="Path_32" data-name="Path 32" d="M207.517,45.24c-.124.012-.255.012-.391.012s-.267,0-.391.012-.255.025-.391.043a7.883,7.883,0,0,0-.956.174,6.831,6.831,0,0,0-.894.286,1.791,1.791,0,0,0-.665.435,1.214,1.214,0,0,0-.292.609v.056s-.031.037-.031.056v.087s-.031.037-.031.056v.143a1.81,1.81,0,0,0,.155.72,2.327,2.327,0,0,0,.478.665,2.293,2.293,0,0,0,.677.478,1.894,1.894,0,0,0,.764.161h.174a.866.866,0,0,0,.2-.031l.174-.056.174-.056a1.3,1.3,0,0,0,.348-.174,2.347,2.347,0,0,0,.348-.286,2.329,2.329,0,0,0,.6-1.012c.056-.193.112-.385.155-.578a3.747,3.747,0,0,0,.1-.578V46.3a.565.565,0,0,1,.031-.161v-.981a1.768,1.768,0,0,1-.36.075h0Zm.3,5.068a.245.245,0,0,0-.031.087.71.71,0,0,1-.056.1c-.019.031-.037.062-.056.1a1.585,1.585,0,0,1-.13.174c-.05.056-.1.118-.155.174a4.649,4.649,0,0,1-.621.565,3.953,3.953,0,0,1-.851.478,4.23,4.23,0,0,1-1.068.348,7.152,7.152,0,0,1-1.3.118,9.854,9.854,0,0,1-2.429-.261,3.912,3.912,0,0,1-1.59-.752,4.719,4.719,0,0,1-.969-1.112,3.957,3.957,0,0,1-.5-1.23c-.037-.137-.075-.267-.1-.4a1.785,1.785,0,0,1-.044-.4,2.921,2.921,0,0,1-.031-.391v-.391a4.306,4.306,0,0,1,.863-2.559,4.576,4.576,0,0,1,2.31-1.491,20.019,20.019,0,0,1,3.236-.739,25.433,25.433,0,0,1,3.584-.248,10.326,10.326,0,0,0-.056-1.1c-.037-.348-.087-.665-.143-.95a1.115,1.115,0,0,0-.46-.665,1.634,1.634,0,0,0-.925-.23,2.084,2.084,0,0,0-.783.13,1.377,1.377,0,0,0-.522.36,2.068,2.068,0,0,0-.3.522,3.094,3.094,0,0,0-.161.547.26.26,0,0,1-.012.087.26.26,0,0,0-.012.087.255.255,0,0,0-.031.1V41.8l-5.459-.056a4.277,4.277,0,0,1,.522-2.155,3.718,3.718,0,0,1,1.59-1.46,8.25,8.25,0,0,1,2.342-.851,13.915,13.915,0,0,1,2.832-.273,12.031,12.031,0,0,1,2.559.261,8.964,8.964,0,0,1,2.211.783,4.013,4.013,0,0,1,1.528,1.286,3.082,3.082,0,0,1,.522,1.776v7.453c0,.248,0,.5.012.764s.025.534.043.826a5.866,5.866,0,0,0,.13.894,7.451,7.451,0,0,0,.273.925h-5.46s-.031-.012-.031-.031v-.056a.652.652,0,0,1-.043-.143c-.012-.056-.025-.124-.043-.2s-.031-.161-.043-.248-.025-.186-.043-.3a2.379,2.379,0,0,1-.031-.373v-.46a1.151,1.151,0,0,1-.056.143h0Z" transform="translate(-74.98 -14.023)" fill="#fff"/>
  <path id="Path_33" data-name="Path 33" d="M229.779,27.45V48.363h-5.46V27.45Z" transform="translate(-84.994 -10.401)" fill="#fff"/>
  <path id="Path_34" data-name="Path 34" d="M240.749,33.574V48.363H235.06V33.574h5.689Zm0-6.124v3.64H235.06V27.45Z" transform="translate(-89.063 -10.401)" fill="#fff"/>
  <path id="Path_35" data-name="Path 35" d="M261.32,46.061a6.579,6.579,0,0,1-.578,2.876,4.9,4.9,0,0,1-1.764,1.981,8.421,8.421,0,0,1-2.515,1.155,10.887,10.887,0,0,1-2.888.373,11.754,11.754,0,0,1-3.106-.36A5.54,5.54,0,0,1,248.314,51a9.085,9.085,0,0,1-1.4-1.571,6.726,6.726,0,0,1-.851-1.72,7.54,7.54,0,0,1-.23-.851c-.056-.279-.106-.553-.143-.82q-.028-.4-.056-.783c-.019-.248-.031-.491-.031-.72a9.239,9.239,0,0,1,.677-3.18,6.607,6.607,0,0,1,1.689-2.366,7.457,7.457,0,0,1,2.5-1.472,9.281,9.281,0,0,1,3.106-.491c.174,0,.36,0,.565.012s.4.025.59.043c.211.019.416.031.621.043a4.642,4.642,0,0,1,.59.075,8.837,8.837,0,0,1,3.7,1.559,3.7,3.7,0,0,1,1.255,1.6,6.04,6.04,0,0,1,.416,2.354l-5.689-.056a3.611,3.611,0,0,0-.13-1,2.118,2.118,0,0,0-.391-.764,1.776,1.776,0,0,0-.652-.491,2.11,2.11,0,0,0-.882-.174,1.358,1.358,0,0,0-.894.3,2.393,2.393,0,0,0-.634.882,6.04,6.04,0,0,0-.391,1.329,8.794,8.794,0,0,0-.13,1.559v.578a10.828,10.828,0,0,0,.1,1.528,8.827,8.827,0,0,0,.3,1.385,2.005,2.005,0,0,0,.609.969,1.568,1.568,0,0,0,1.043.329,2.11,2.11,0,0,0,.882-.174,1.578,1.578,0,0,0,.652-.547,2.384,2.384,0,0,0,.391-.913,6.021,6.021,0,0,0,.13-1.342v-.056h5.689Z" transform="translate(-93.057 -14.031)" fill="#fff"/>
  <path id="Path_36" data-name="Path 36" d="M276.9,27.46V31.1H271.21V27.46Zm0,6.124V48.143a12.615,12.615,0,0,1-.174,2.168,9.134,9.134,0,0,1-.522,1.876,2.386,2.386,0,0,1-1.528,1.3,10.214,10.214,0,0,1-3.236.46h-.491a.974.974,0,0,0-.23-.031h-.261c-.174-.019-.348-.037-.522-.043s-.354-.025-.547-.043v-3.64h.056a.173.173,0,0,1,.056.031h.317a1.65,1.65,0,0,0,.826-.174.8.8,0,0,0,.391-.522,6.287,6.287,0,0,0,.13-.752,7.038,7.038,0,0,0,.043-.807V33.578H276.9Z" transform="translate(-102.071 -10.405)" fill="#fff"/>
  <g id="Group_13" data-name="Group 13" clip-path="url(#clip-path)">
    <path id="Path_37" data-name="Path 37" d="M292.507,45.22c-.124.012-.255.012-.391.012s-.267,0-.391.012-.255.025-.391.043a7.572,7.572,0,0,0-.95.174,6.833,6.833,0,0,0-.894.286,1.791,1.791,0,0,0-.665.435,1.213,1.213,0,0,0-.292.609v.056s-.031.037-.031.056v.087s-.031.037-.031.056v.143a1.717,1.717,0,0,0,.161.72,2.327,2.327,0,0,0,.478.665,2.293,2.293,0,0,0,.677.478,1.894,1.894,0,0,0,.764.161h.174a.866.866,0,0,0,.2-.031c.062-.019.118-.037.174-.056l.174-.056a1.3,1.3,0,0,0,.348-.174,2.346,2.346,0,0,0,.348-.286,2.266,2.266,0,0,0,.609-1.012c.056-.193.112-.385.155-.578a3.746,3.746,0,0,0,.1-.578v-.161a.565.565,0,0,1,.031-.161v-.981a1.769,1.769,0,0,1-.36.075h0Zm.3,5.068a.245.245,0,0,0-.031.087.706.706,0,0,1-.056.1c-.019.031-.037.062-.056.1a1.586,1.586,0,0,1-.13.174c-.05.056-.1.118-.155.174a4.645,4.645,0,0,1-.621.565,4.107,4.107,0,0,1-.851.478,4.231,4.231,0,0,1-1.068.348,7.152,7.152,0,0,1-1.3.118,9.853,9.853,0,0,1-2.428-.261,3.911,3.911,0,0,1-1.59-.752,4.719,4.719,0,0,1-.969-1.112,3.957,3.957,0,0,1-.5-1.23c-.037-.137-.074-.267-.1-.4a1.785,1.785,0,0,1-.044-.4,2.918,2.918,0,0,1-.031-.391v-.391a4.307,4.307,0,0,1,.863-2.559,4.576,4.576,0,0,1,2.311-1.491,20.019,20.019,0,0,1,3.236-.739,25.434,25.434,0,0,1,3.584-.248,10.33,10.33,0,0,0-.056-1.1c-.037-.348-.087-.665-.143-.95a1.116,1.116,0,0,0-.46-.665,1.634,1.634,0,0,0-.925-.23,2.084,2.084,0,0,0-.783.13,1.377,1.377,0,0,0-.522.36,2.068,2.068,0,0,0-.3.522,3.1,3.1,0,0,0-.161.547.261.261,0,0,1-.012.087.26.26,0,0,0-.012.087.255.255,0,0,0-.031.1v.447L284,41.729a4.277,4.277,0,0,1,.522-2.155,3.718,3.718,0,0,1,1.59-1.46,8.181,8.181,0,0,1,2.342-.851,13.915,13.915,0,0,1,2.832-.273,12.031,12.031,0,0,1,2.559.261,8.964,8.964,0,0,1,2.211.783,4.012,4.012,0,0,1,1.528,1.286,3.082,3.082,0,0,1,.522,1.776v7.453c0,.248,0,.5.012.764s.025.534.043.826a5.869,5.869,0,0,0,.13.894,7.454,7.454,0,0,0,.273.925h-5.46s-.031-.012-.031-.031v-.056a.653.653,0,0,1-.043-.143c-.012-.056-.025-.124-.043-.2s-.031-.161-.043-.248-.025-.186-.043-.3a2.4,2.4,0,0,1-.031-.379v-.46a1.148,1.148,0,0,1-.056.143h0Z" transform="translate(-107.182 -14.015)" fill="#fff"/>
    <path id="Path_38" data-name="Path 38" d="M42.247,68.862a4.441,4.441,0,0,1-5.155,0C25.378,60.527,0,43,0,21.273A21.257,21.257,0,0,1,38.788,9.236a1.068,1.068,0,0,0,1.764,0A21.253,21.253,0,0,1,79.334,21.273C79.327,43,53.949,60.527,42.241,68.862h0Z" fill="#d5153c"/>
  </g>
  <path id="Path_39" data-name="Path 39" d="M51.306,64.736a2.575,2.575,0,0,1-2.994,0c-6.466-4.6-20.1-14.025-21.434-25.782-.826-7.267,4.5-13.944,11.8-14.2a12.3,12.3,0,0,1,10.248,4.851,1.1,1.1,0,0,0,1.764,0,12.341,12.341,0,0,1,22.149,7.5C72.84,49.723,58.1,59.9,51.3,64.742h0Z" transform="translate(-10.152 -9.377)" fill="#fff"/>
</svg>
