<svg id="NAPISY" xmlns="http://www.w3.org/2000/svg" xmlns:xlink="http://www.w3.org/1999/xlink" width="398" height="106.676" viewBox="0 0 398 106.676">
  <defs>
    <clipPath id="clip-path">
      <rect id="Rectangle_11" data-name="Rectangle 11" width="397.991" height="106.676" fill="none"/>
    </clipPath>
  </defs>
  <path id="Path_19" data-name="Path 19" d="M155.558,90.443c-6.047,0-7.292-5.59-7.292-10.344,0-5.02,1.245-10.611,7.292-10.611s7.292,5.59,7.292,10.611c0,4.754-1.245,10.344-7.292,10.344Zm0-27.163c-10.63,0-16.638,6.123-16.638,16.7s6.009,16.686,16.638,16.686S172.2,90.538,172.2,79.975s-6.009-16.7-16.638-16.7Z" transform="translate(-6.84 -3.116)" fill="#0f3f93" fill-rule="evenodd"/>
  <path id="Path_20" data-name="Path 20" d="M187.184,91.809c-3.071,0-3.822-4.126-3.822-6.617,0-2.976.314-7.235,4.136-7.235,3.6,0,4,4.088,4,6.836s-.628,7.017-4.316,7.017h0Zm3.071-18.73a8.708,8.708,0,0,0-6.807,3.023h-.086V63.98H174.91V96.03h8.234l.219-3.28h.181c.58,2.263,3.651,3.946,6.228,3.946,7.387,0,10.411-5.372,10.411-12.16,0-6.3-3.071-11.457-9.916-11.457h0Z" transform="translate(-8.612 -3.15)" fill="#0f3f93" fill-rule="evenodd"/>
  <path id="Path_21" data-name="Path 21" d="M256.375,74.25l-3.917,15.716h-.086L248.5,74.25h-9.346l-3.917,15.8h-.086l-3.6-15.8h-14.49l-4.8,15.488h-.086l-4.4-15.488H198.74L208.077,97.2l-3.157,7.853h7.787l11.1-28.181,6.009,19.662h9.156L243.34,81h.086l4.05,15.536h9.337l7.036-22.286Z" transform="translate(-9.785 -3.656)" fill="#0f3f93" fill-rule="evenodd"/>
  <path id="Path_22" data-name="Path 22" d="M275.416,92.281a2.922,2.922,0,0,1-2.89-2.928c0-1.6.979-2.348,2.225-2.976,1.16-.58,2.843-.485,4.621-.485,0,2.976-.314,6.389-3.955,6.389h0Zm11.875-.352V80.482c.086-5.02-5.381-6.922-9.916-6.922a19.008,19.008,0,0,0-7.692,1.331,6.029,6.029,0,0,0-3.87,5.99h7.958c-.048-1.331.618-3.328,2.672-3.423,3.375-.133,2.938,2.71,2.938,4.659h-2.672c-7.292,0-12.274,2.225-12.369,7.635-.086,4.573,2.672,7.416,7.958,7.416a7.764,7.764,0,0,0,7.121-3.679h.086a12.422,12.422,0,0,0,.181,3.014h8.091c-.314-2.662-.485-3.641-.485-4.573h0Z" transform="translate(-13.015 -3.622)" fill="#0f3f93" fill-rule="evenodd"/>
  <path id="Path_23" data-name="Path 23" d="M288.75,73.909v5.324H293.1v9.983c-.447,6.836,3.023,7.635,8.766,7.635a23.268,23.268,0,0,0,4.535-.447v-5.02a25.5,25.5,0,0,1-3.252.133c-1.959,0-1.6-2.881-1.6-3.461V79.224h4.9V73.9h-4.9V67.33L293.1,70.525V73.9H288.75Z" transform="translate(-14.216 -3.315)" fill="#0f3f93" fill-rule="evenodd"/>
  <path id="Path_24" data-name="Path 24" d="M319.218,77.772a3.213,3.213,0,0,1,2.938,1.417,5.792,5.792,0,0,1,1.027,3.328h-7.825c.219-2.529.932-4.621,3.87-4.754h0Zm-.181,14.651c-3.157,0-3.917-2.491-3.87-5.372h16.011c0-8.3-2.89-13.491-11.961-13.491-6.712,0-12.008,3.993-12.008,11.057,0,8.747,3.556,12.56,12.5,12.56a13.163,13.163,0,0,0,7.074-1.73,8.069,8.069,0,0,0,4.221-6.218h-7.825c-.314,2.082-1.778,3.195-4.136,3.195h0Z" transform="translate(-15.125 -3.622)" fill="#0f3f93" fill-rule="evenodd"/>
  <path id="Path_25" data-name="Path 25" d="M342.263,63.98H333.82V96.03h8.443V63.98Z" transform="translate(-16.435 -3.15)" fill="#0f3f93" fill-rule="evenodd"/>
  <path id="Path_26" data-name="Path 26" d="M365.088,81.1c-.352-6.17-5.248-7.549-10.544-7.549-4.45,0-10.316,1.512-10.316,7.017,0,8.082,13.216,5.724,13.216,9.679,0,1.417-1.2,2.044-2.843,2.044a2.73,2.73,0,0,1-2.006-1.017,2.415,2.415,0,0,1-.58-2H344.01c-.048,6.788,5.3,7.9,10.763,7.9,5.115,0,10.677-1.512,10.677-7.416,0-3.641-1.826-5.286-4.488-6.123-5.3-1.645-8.719-1.55-8.719-3.195a1.828,1.828,0,0,1,2.006-2,2.945,2.945,0,0,1,2.31.8,2.753,2.753,0,0,1,.532,1.864H365.1Z" transform="translate(-16.937 -3.621)" fill="#0f3f93" fill-rule="evenodd"/>
  <path id="Path_27" data-name="Path 27" d="M376.152,63.98H367.7V96.03h8.452V63.98Z" transform="translate(-18.103 -3.15)" fill="#0f3f93" fill-rule="evenodd"/>
  <path id="Path_28" data-name="Path 28" d="M384.6,96.536h10l-8.671-12.921,7.559-9.365h-9.2l-7.7,9.85L384.6,96.536Z" transform="translate(-18.541 -3.656)" fill="#0f3f93" fill-rule="evenodd"/>
  <path id="Path_29" data-name="Path 29" d="M405.027,92.281a2.922,2.922,0,0,1-2.89-2.928c0-1.6.979-2.348,2.225-2.976,1.16-.58,2.843-.485,4.63-.485,0,2.976-.314,6.389-3.955,6.389h0Zm11.875-.352V80.482c.086-5.02-5.381-6.922-9.916-6.922a19.008,19.008,0,0,0-7.692,1.331,6.029,6.029,0,0,0-3.87,5.99h7.958c-.048-1.331.628-3.328,2.672-3.423,3.385-.133,2.938,2.71,2.938,4.659H406.32c-7.292,0-12.274,2.225-12.36,7.635-.086,4.573,2.672,7.416,7.958,7.416a7.764,7.764,0,0,0,7.121-3.679h.086a12.424,12.424,0,0,0,.181,3.014H417.4c-.314-2.662-.485-3.641-.485-4.573h0Z" transform="translate(-19.396 -3.622)" fill="#0f3f93" fill-rule="evenodd"/>
  <path id="Path_30" data-name="Path 30" d="M150.031,27.45V41.379L160.109,27.45H170.9L159.757,41.379l12.208,18.084H160.47L150.031,42.4V59.462H140.97V27.45Z" transform="translate(-6.941 -1.351)" fill="#0f3f93"/>
  <path id="Path_31" data-name="Path 31" d="M187.126,48.325v-.6a10.38,10.38,0,0,0-.285-2.054,12.99,12.99,0,0,0-.637-1.921,3.156,3.156,0,0,0-1.236-1.35,4.354,4.354,0,0,0-3.822-.048,3.518,3.518,0,0,0-1.3,1.265,6.587,6.587,0,0,0-.8,1.987,11.208,11.208,0,0,0-.266,2.567,14.569,14.569,0,0,0,.314,3.223,7.647,7.647,0,0,0,.884,2.3,4.416,4.416,0,0,0,1.35,1.369,3.118,3.118,0,0,0,1.654.437,3.569,3.569,0,0,0,1.683-.38,2.991,2.991,0,0,0,1.15-1.084,9.194,9.194,0,0,0,.732-1.55,8.716,8.716,0,0,0,.418-1.683c.029-.209.048-.409.067-.6s.038-.39.067-.6v-.266a1.326,1.326,0,0,1,.048-.3v-.732h0ZM170.916,44.3a14.709,14.709,0,0,1,2.054-3.737,7.924,7.924,0,0,1,3.822-2.653,21.217,21.217,0,0,1,11.409-.2,13.766,13.766,0,0,1,4.221,2.016,8.676,8.676,0,0,1,2.8,3.47,11.929,11.929,0,0,1,.951,4.973,14.962,14.962,0,0,1-.751,5,8.977,8.977,0,0,1-2.215,3.537,17,17,0,0,1-3.119,2.272,10.565,10.565,0,0,1-3.385,1.217c-.323.057-.647.114-.97.181s-.647.1-.97.133a7.106,7.106,0,0,1-.9.114c-.3.019-.608.019-.9.019a15.57,15.57,0,0,1-5.191-.818,12,12,0,0,1-4.136-2.453,11.083,11.083,0,0,1-2.672-3.889,12.88,12.88,0,0,1-.9-4.953v-.086a14.31,14.31,0,0,1,.865-4.136h0Z" transform="translate(-8.373 -1.823)" fill="#0f3f93"/>
  <path id="Path_32" data-name="Path 32" d="M212.627,49.608c-.19.019-.39.019-.6.019s-.409,0-.6.019-.39.038-.6.067a12.067,12.067,0,0,0-1.464.266,10.458,10.458,0,0,0-1.369.437,2.742,2.742,0,0,0-1.017.666,1.858,1.858,0,0,0-.447.932V52.1s-.048.057-.048.086v.133s-.048.057-.048.086v.219a2.771,2.771,0,0,0,.238,1.1,3.563,3.563,0,0,0,.732,1.017,3.51,3.51,0,0,0,1.036.732,2.9,2.9,0,0,0,1.169.247h.266a1.326,1.326,0,0,0,.3-.048c.086-.029.181-.057.266-.086s.181-.057.266-.086a1.993,1.993,0,0,0,.532-.266,3.593,3.593,0,0,0,.532-.437,3.566,3.566,0,0,0,.922-1.55c.086-.295.171-.589.238-.884a5.737,5.737,0,0,0,.152-.884v-.247a.865.865,0,0,1,.048-.247v-1.5a2.706,2.706,0,0,1-.551.114h0Zm.466,7.758a.375.375,0,0,0-.048.133,1.087,1.087,0,0,1-.086.152c-.029.048-.057.1-.086.152a2.426,2.426,0,0,1-.2.266c-.076.086-.152.181-.238.266a7.117,7.117,0,0,1-.951.865,6.051,6.051,0,0,1-1.3.732,6.476,6.476,0,0,1-1.635.532,10.949,10.949,0,0,1-1.987.181,15.083,15.083,0,0,1-3.717-.4,5.988,5.988,0,0,1-2.434-1.15,7.224,7.224,0,0,1-1.483-1.7,6.058,6.058,0,0,1-.77-1.883c-.057-.209-.114-.409-.152-.618a2.733,2.733,0,0,1-.067-.618,4.469,4.469,0,0,1-.048-.6v-.6a6.592,6.592,0,0,1,1.322-3.917,7.005,7.005,0,0,1,3.537-2.282,30.644,30.644,0,0,1,4.953-1.131,38.933,38.933,0,0,1,5.486-.38,15.813,15.813,0,0,0-.086-1.683c-.057-.532-.133-1.017-.219-1.455a1.708,1.708,0,0,0-.7-1.017,2.5,2.5,0,0,0-1.417-.352,3.19,3.19,0,0,0-1.2.2,2.108,2.108,0,0,0-.8.551,3.166,3.166,0,0,0-.466.8,4.737,4.737,0,0,0-.247.837.4.4,0,0,1-.019.133.4.4,0,0,0-.019.133.391.391,0,0,0-.048.152v.685l-8.357-.086a6.546,6.546,0,0,1,.8-3.3,5.692,5.692,0,0,1,2.434-2.234,12.628,12.628,0,0,1,3.584-1.3,21.3,21.3,0,0,1,4.335-.418,18.417,18.417,0,0,1,3.917.4,13.722,13.722,0,0,1,3.385,1.2,6.143,6.143,0,0,1,2.339,1.968,4.718,4.718,0,0,1,.8,2.719V54.7c0,.38,0,.77.019,1.169s.038.818.067,1.265a8.977,8.977,0,0,0,.2,1.369,11.4,11.4,0,0,0,.418,1.417h-8.357s-.048-.019-.048-.048V59.79a1,1,0,0,1-.067-.219c-.019-.086-.038-.19-.067-.314s-.048-.247-.067-.38-.038-.285-.067-.466a3.645,3.645,0,0,1-.048-.57v-.7a1.76,1.76,0,0,1-.086.219h0Z" transform="translate(-9.743 -1.822)" fill="#0f3f93"/>
  <path id="Path_33" data-name="Path 33" d="M232.677,27.45V59.462H224.32V27.45Z" transform="translate(-11.044 -1.351)" fill="#0f3f93"/>
  <path id="Path_34" data-name="Path 34" d="M243.769,36.825V59.462H235.06V36.825h8.709Zm0-9.375v5.571H235.06V27.45Z" transform="translate(-11.573 -1.351)" fill="#0f3f93"/>
  <path id="Path_35" data-name="Path 35" d="M269.664,50.854a10.07,10.07,0,0,1-.884,4.4,7.5,7.5,0,0,1-2.7,3.033,12.89,12.89,0,0,1-3.851,1.768,16.665,16.665,0,0,1-4.421.57,17.992,17.992,0,0,1-4.754-.551,8.48,8.48,0,0,1-3.3-1.654,13.906,13.906,0,0,1-2.149-2.405,10.3,10.3,0,0,1-1.3-2.634,11.544,11.544,0,0,1-.352-1.3c-.086-.428-.162-.846-.219-1.255q-.043-.613-.086-1.2c-.029-.38-.048-.751-.048-1.1a14.142,14.142,0,0,1,1.036-4.868,10.114,10.114,0,0,1,2.586-3.622,11.414,11.414,0,0,1,3.822-2.253,14.208,14.208,0,0,1,4.754-.751c.266,0,.551,0,.865.019s.609.038.9.067c.323.029.637.048.951.067a7.106,7.106,0,0,1,.9.114,13.528,13.528,0,0,1,5.667,2.386,5.657,5.657,0,0,1,1.921,2.453,9.246,9.246,0,0,1,.637,3.6l-8.709-.086a5.525,5.525,0,0,0-.2-1.531,3.243,3.243,0,0,0-.6-1.169,2.718,2.718,0,0,0-1-.751,3.229,3.229,0,0,0-1.35-.266,2.079,2.079,0,0,0-1.369.466,3.663,3.663,0,0,0-.97,1.35,9.245,9.245,0,0,0-.6,2.035,13.459,13.459,0,0,0-.2,2.386v.884A16.574,16.574,0,0,0,254.8,51.4a13.51,13.51,0,0,0,.466,2.12A3.069,3.069,0,0,0,256.2,55a2.4,2.4,0,0,0,1.6.5,3.229,3.229,0,0,0,1.35-.266,2.415,2.415,0,0,0,1-.837,3.65,3.65,0,0,0,.6-1.4,9.214,9.214,0,0,0,.2-2.054v-.086h8.709Z" transform="translate(-12.092 -1.823)" fill="#0f3f93"/>
  <path id="Path_36" data-name="Path 36" d="M280.885,27.46v5.571h-8.709V27.46Zm0,9.375V59.12a19.309,19.309,0,0,1-.266,3.318,13.981,13.981,0,0,1-.8,2.871,3.652,3.652,0,0,1-2.339,1.987,15.635,15.635,0,0,1-4.953.7h-.751a1.491,1.491,0,0,0-.352-.048h-.4c-.266-.029-.532-.057-.8-.067s-.542-.038-.837-.067V62.249h.086a.265.265,0,0,1,.086.048h.485a2.525,2.525,0,0,0,1.264-.266,1.226,1.226,0,0,0,.6-.8,9.617,9.617,0,0,0,.2-1.15,10.766,10.766,0,0,0,.067-1.236V36.825h8.709Z" transform="translate(-13.263 -1.352)" fill="#0f3f93"/>
  <g id="Group_13" data-name="Group 13" clip-path="url(#clip-path)">
    <path id="Path_37" data-name="Path 37" d="M297.617,49.588c-.19.019-.39.019-.6.019s-.409,0-.6.019-.39.038-.6.067a11.588,11.588,0,0,0-1.455.266A10.458,10.458,0,0,0,293,50.4a2.742,2.742,0,0,0-1.017.666,1.858,1.858,0,0,0-.447.932v.086s-.048.057-.048.086V52.3s-.048.057-.048.086V52.6a2.628,2.628,0,0,0,.247,1.1,3.564,3.564,0,0,0,.732,1.017,3.51,3.51,0,0,0,1.036.732,2.9,2.9,0,0,0,1.169.247h.266a1.325,1.325,0,0,0,.3-.048c.1-.029.181-.057.266-.086s.181-.057.266-.086a1.993,1.993,0,0,0,.532-.266,3.593,3.593,0,0,0,.532-.437,3.469,3.469,0,0,0,.932-1.55c.086-.295.171-.589.238-.884a5.735,5.735,0,0,0,.152-.884v-.247a.865.865,0,0,1,.048-.247v-1.5a2.706,2.706,0,0,1-.551.114h0Zm.466,7.758a.374.374,0,0,0-.048.133,1.088,1.088,0,0,1-.086.152c-.029.048-.057.1-.086.152a2.428,2.428,0,0,1-.2.266c-.076.086-.152.181-.238.266a7.115,7.115,0,0,1-.951.865,6.289,6.289,0,0,1-1.3.732,6.476,6.476,0,0,1-1.635.532,10.948,10.948,0,0,1-1.987.181,15.083,15.083,0,0,1-3.717-.4,5.988,5.988,0,0,1-2.434-1.15,7.224,7.224,0,0,1-1.483-1.7,6.058,6.058,0,0,1-.77-1.883c-.057-.209-.114-.409-.152-.618a2.735,2.735,0,0,1-.067-.618,4.469,4.469,0,0,1-.048-.6v-.6a6.592,6.592,0,0,1,1.322-3.917,7.005,7.005,0,0,1,3.537-2.282,30.645,30.645,0,0,1,4.953-1.131,38.933,38.933,0,0,1,5.486-.38,15.813,15.813,0,0,0-.086-1.683c-.057-.532-.133-1.017-.219-1.455a1.708,1.708,0,0,0-.7-1.017,2.5,2.5,0,0,0-1.417-.352,3.19,3.19,0,0,0-1.2.2,2.108,2.108,0,0,0-.8.551,3.165,3.165,0,0,0-.466.8,4.738,4.738,0,0,0-.247.837.4.4,0,0,1-.019.133.4.4,0,0,0-.019.133.391.391,0,0,0-.048.152v.685l-8.357-.086a6.547,6.547,0,0,1,.8-3.3,5.692,5.692,0,0,1,2.434-2.234,12.523,12.523,0,0,1,3.584-1.3,21.3,21.3,0,0,1,4.335-.418,18.417,18.417,0,0,1,3.917.4,13.722,13.722,0,0,1,3.385,1.2,6.142,6.142,0,0,1,2.339,1.968,4.718,4.718,0,0,1,.8,2.719V54.684c0,.38,0,.77.019,1.169s.038.818.067,1.265a8.983,8.983,0,0,0,.2,1.369A11.41,11.41,0,0,0,306.9,59.9h-8.357s-.048-.019-.048-.048V59.77a1,1,0,0,1-.067-.219c-.019-.086-.038-.19-.067-.314s-.048-.247-.067-.38-.038-.285-.067-.466a3.67,3.67,0,0,1-.048-.58v-.7a1.763,1.763,0,0,1-.086.219h0Z" transform="translate(-13.927 -1.821)" fill="#0f3f93"/>
    <path id="Path_38" data-name="Path 38" d="M64.671,105.411a6.8,6.8,0,0,1-7.891,0C38.848,92.652,0,65.822,0,32.564A32.539,32.539,0,0,1,59.375,14.138a1.635,1.635,0,0,0,2.7,0,32.533,32.533,0,0,1,59.366,18.426c-.01,33.258-38.858,60.088-56.78,72.848h0Z" fill="#d5153c"/>
  </g>
  <path id="Path_39" data-name="Path 39" d="M64.317,85.96a3.941,3.941,0,0,1-4.583,0c-9.9-7.045-30.767-21.468-32.811-39.466C25.659,35.37,33.807,25.149,44.988,24.759a18.835,18.835,0,0,1,15.688,7.425,1.689,1.689,0,0,0,2.7,0A18.891,18.891,0,0,1,97.28,43.67c0,19.31-22.562,34.893-32.973,42.3h0Z" transform="translate(-1.319 -1.218)" fill="#fff"/>
</svg>
